name rise31.4854peak64.571fall78.6902.mot
datacolumns 19
datarows 30
range 14.70161400000000 14.74994800000000
endheader
time	ground_force1_vx	ground_force1_vy	ground_force1_vz	ground_force1_px	ground_force1_py	ground_force1_pz	ground_force2_vx	ground_force2_vy	ground_force2_vz	ground_force2_px	ground_force2_py	ground_force2_pz	ground_torque1_x	ground_torque1_y	ground_torque1_z	ground_torque2_x	ground_torque2_y	ground_torque2_z	
14.70161400000000	5.54893000000000	699.50845700000002	40.48664000000000	0.22029100000000	0.00000000000000	0.08781000000000	0.00000000000000	0.00000000000000	0.00000000000000	0.00000000000000	0.00000000000000	0.00000000000000	0.00000000000000	16.36128700000000	0.00000000000000	0.00000000000000	0.00000000000000	0.00000000000000	
14.70328100000000	5.20101000000000	700.52342799999997	40.53249400000000	0.21962200000000	0.00000000000000	0.08776500000000	0.00000000000000	0.00000000000000	0.00000000000000	0.00000000000000	0.00000000000000	0.00000000000000	0.00000000000000	16.41153800000000	0.00000000000000	0.00000000000000	0.00000000000000	0.00000000000000	
14.70494700000000	4.84476500000000	701.56586400000003	40.58214200000000	0.21893300000000	0.00000000000000	0.08772200000000	0.00000000000000	0.00000000000000	0.00000000000000	0.00000000000000	0.00000000000000	0.00000000000000	0.00000000000000	16.46493000000000	0.00000000000000	0.00000000000000	0.00000000000000	0.00000000000000	
14.70661500000000	4.47971000000000	702.63372700000002	40.63535000000000	0.21822300000000	0.00000000000000	0.08768100000000	0.00000000000000	0.00000000000000	0.00000000000000	0.00000000000000	0.00000000000000	0.00000000000000	0.00000000000000	16.52139300000000	0.00000000000000	0.00000000000000	0.00000000000000	0.00000000000000	
14.70828100000000	4.10540900000000	703.72501399999999	40.69189900000000	0.21749100000000	0.00000000000000	0.08764100000000	0.00000000000000	0.00000000000000	0.00000000000000	0.00000000000000	0.00000000000000	0.00000000000000	0.00000000000000	16.58086300000000	0.00000000000000	0.00000000000000	0.00000000000000	0.00000000000000	
14.70994700000000	3.72146600000000	704.83776599999999	40.75158800000000	0.21673600000000	0.00000000000000	0.08760300000000	0.00000000000000	0.00000000000000	0.00000000000000	0.00000000000000	0.00000000000000	0.00000000000000	0.00000000000000	16.64328200000000	0.00000000000000	0.00000000000000	0.00000000000000	0.00000000000000	
14.71161200000000	3.32753600000000	705.97007499999995	40.81422900000000	0.21595800000000	0.00000000000000	0.08756600000000	0.00000000000000	0.00000000000000	0.00000000000000	0.00000000000000	0.00000000000000	0.00000000000000	0.00000000000000	16.70859800000000	0.00000000000000	0.00000000000000	0.00000000000000	0.00000000000000	
14.71328300000000	2.92332000000000	707.12008500000002	40.87965600000000	0.21515500000000	0.00000000000000	0.08753100000000	0.00000000000000	0.00000000000000	0.00000000000000	0.00000000000000	0.00000000000000	0.00000000000000	0.00000000000000	16.77676500000000	0.00000000000000	0.00000000000000	0.00000000000000	0.00000000000000	
14.71495000000000	2.50856700000000	708.28600400000005	40.94771800000000	0.21432800000000	0.00000000000000	0.08749700000000	0.00000000000000	0.00000000000000	0.00000000000000	0.00000000000000	0.00000000000000	0.00000000000000	0.00000000000000	16.84774300000000	0.00000000000000	0.00000000000000	0.00000000000000	0.00000000000000	
14.71661700000000	2.08307700000000	709.46610399999997	41.01828200000000	0.21347700000000	0.00000000000000	0.08746500000000	0.00000000000000	0.00000000000000	0.00000000000000	0.00000000000000	0.00000000000000	0.00000000000000	0.00000000000000	16.92149900000000	0.00000000000000	0.00000000000000	0.00000000000000	0.00000000000000	
14.71828100000000	1.64669600000000	710.65872899999999	41.09123200000000	0.21260200000000	0.00000000000000	0.08743400000000	0.00000000000000	0.00000000000000	0.00000000000000	0.00000000000000	0.00000000000000	0.00000000000000	0.00000000000000	16.99800400000000	0.00000000000000	0.00000000000000	0.00000000000000	0.00000000000000	
14.71994700000000	1.19932100000000	711.86229800000001	41.16647000000000	0.21170300000000	0.00000000000000	0.08740500000000	0.00000000000000	0.00000000000000	0.00000000000000	0.00000000000000	0.00000000000000	0.00000000000000	0.00000000000000	17.07723400000000	0.00000000000000	0.00000000000000	0.00000000000000	0.00000000000000	
14.72161900000000	0.74089800000000	713.07530899999995	41.24391700000000	0.21078000000000	0.00000000000000	0.08737700000000	0.00000000000000	0.00000000000000	0.00000000000000	0.00000000000000	0.00000000000000	0.00000000000000	0.00000000000000	17.15917300000000	0.00000000000000	0.00000000000000	0.00000000000000	0.00000000000000	
14.72328100000000	0.27142100000000	714.29634299999998	41.32351000000000	0.20983500000000	0.00000000000000	0.08735000000000	0.00000000000000	0.00000000000000	0.00000000000000	0.00000000000000	0.00000000000000	0.00000000000000	0.00000000000000	17.24380400000000	0.00000000000000	0.00000000000000	0.00000000000000	0.00000000000000	
14.72494300000000	-0.20906900000000	715.52406499999995	41.40520400000000	0.20886800000000	0.00000000000000	0.08732400000000	0.00000000000000	0.00000000000000	0.00000000000000	0.00000000000000	0.00000000000000	0.00000000000000	0.00000000000000	17.33111900000000	0.00000000000000	0.00000000000000	0.00000000000000	0.00000000000000	
14.72661600000000	-0.70048600000000	716.75723000000005	41.48896900000000	0.20788100000000	0.00000000000000	0.08729900000000	0.00000000000000	0.00000000000000	0.00000000000000	0.00000000000000	0.00000000000000	0.00000000000000	0.00000000000000	17.42111000000000	0.00000000000000	0.00000000000000	0.00000000000000	0.00000000000000	
14.72827600000000	-1.20269600000000	717.99468200000001	41.57479500000000	0.20687300000000	0.00000000000000	0.08727600000000	0.00000000000000	0.00000000000000	0.00000000000000	0.00000000000000	0.00000000000000	0.00000000000000	0.00000000000000	17.51377400000000	0.00000000000000	0.00000000000000	0.00000000000000	0.00000000000000	
14.72994700000000	-1.71552300000000	719.23535500000003	41.66268300000000	0.20584700000000	0.00000000000000	0.08725300000000	0.00000000000000	0.00000000000000	0.00000000000000	0.00000000000000	0.00000000000000	0.00000000000000	0.00000000000000	17.60910600000000	0.00000000000000	0.00000000000000	0.00000000000000	0.00000000000000	
14.73161100000000	-2.23874900000000	720.47827700000005	41.75265400000000	0.20480300000000	0.00000000000000	0.08723100000000	0.00000000000000	0.00000000000000	0.00000000000000	0.00000000000000	0.00000000000000	0.00000000000000	0.00000000000000	17.70710800000000	0.00000000000000	0.00000000000000	0.00000000000000	0.00000000000000	
14.73327700000000	-2.77211400000000	721.72257000000002	41.84474200000000	0.20374400000000	0.00000000000000	0.08720900000000	0.00000000000000	0.00000000000000	0.00000000000000	0.00000000000000	0.00000000000000	0.00000000000000	0.00000000000000	17.80777800000000	0.00000000000000	0.00000000000000	0.00000000000000	0.00000000000000	
14.73494700000000	-3.31532200000000	722.96744400000000	41.93899500000000	0.20267000000000	0.00000000000000	0.08718800000000	0.00000000000000	0.00000000000000	0.00000000000000	0.00000000000000	0.00000000000000	0.00000000000000	0.00000000000000	17.91111700000000	0.00000000000000	0.00000000000000	0.00000000000000	0.00000000000000	
14.73661500000000	-3.86804000000000	724.21220500000004	42.03547500000000	0.20158400000000	0.00000000000000	0.08716800000000	0.00000000000000	0.00000000000000	0.00000000000000	0.00000000000000	0.00000000000000	0.00000000000000	0.00000000000000	18.01712300000000	0.00000000000000	0.00000000000000	0.00000000000000	0.00000000000000	
14.73829000000000	-4.42990000000000	725.45624899999996	42.13425800000000	0.20048700000000	0.00000000000000	0.08714800000000	0.00000000000000	0.00000000000000	0.00000000000000	0.00000000000000	0.00000000000000	0.00000000000000	0.00000000000000	18.12579400000000	0.00000000000000	0.00000000000000	0.00000000000000	0.00000000000000	
14.73994400000000	-5.00050300000000	726.69905800000004	42.23542900000000	0.19938000000000	0.00000000000000	0.08712800000000	0.00000000000000	0.00000000000000	0.00000000000000	0.00000000000000	0.00000000000000	0.00000000000000	0.00000000000000	18.23712500000000	0.00000000000000	0.00000000000000	0.00000000000000	0.00000000000000	
14.74161100000000	-5.57942300000000	727.94020599999999	42.33908900000000	0.19826600000000	0.00000000000000	0.08710800000000	0.00000000000000	0.00000000000000	0.00000000000000	0.00000000000000	0.00000000000000	0.00000000000000	0.00000000000000	18.35111000000000	0.00000000000000	0.00000000000000	0.00000000000000	0.00000000000000	
14.74328200000000	-6.16620300000000	729.17934600000001	42.44534600000000	0.19714700000000	0.00000000000000	0.08708800000000	0.00000000000000	0.00000000000000	0.00000000000000	0.00000000000000	0.00000000000000	0.00000000000000	0.00000000000000	18.46773600000000	0.00000000000000	0.00000000000000	0.00000000000000	0.00000000000000	
14.74494800000000	-6.76036700000000	730.41621499999997	42.55432000000000	0.19602300000000	0.00000000000000	0.08706800000000	0.00000000000000	0.00000000000000	0.00000000000000	0.00000000000000	0.00000000000000	0.00000000000000	0.00000000000000	18.58698900000000	0.00000000000000	0.00000000000000	0.00000000000000	0.00000000000000	
14.74661300000000	-7.36141500000000	731.65062699999999	42.66613800000000	0.19489700000000	0.00000000000000	0.08704800000000	0.00000000000000	0.00000000000000	0.00000000000000	0.00000000000000	0.00000000000000	0.00000000000000	0.00000000000000	18.70884800000000	0.00000000000000	0.00000000000000	0.00000000000000	0.00000000000000	
14.74827500000000	-7.96882900000000	732.88246800000002	42.78093700000000	0.19377100000000	0.00000000000000	0.08702800000000	0.00000000000000	0.00000000000000	0.00000000000000	0.00000000000000	0.00000000000000	0.00000000000000	0.00000000000000	18.83328700000000	0.00000000000000	0.00000000000000	0.00000000000000	0.00000000000000	
14.74994800000000	-8.58207700000000	734.11169400000006	42.89886000000000	0.19264600000000	0.00000000000000	0.08700700000000	0.00000000000000	0.00000000000000	0.00000000000000	0.00000000000000	0.00000000000000	0.00000000000000	0.00000000000000	18.96027400000000	0.00000000000000	0.00000000000000	0.00000000000000	0.00000000000000	
